<?xml version="1.0" encoding="UTF-8"?>
<svg id="Layer_1" data-name="Layer 1" xmlns="http://www.w3.org/2000/svg" viewBox="0 0 165.46 102.72">
  <defs>
    <style>
      .cls-1 {
        fill: none;
        stroke: #146eff;
        stroke-miterlimit: 10;
        stroke-width: 2.74px;
      }

      .cls-2 {
        fill: #116dff;
      }

      .cls-3 {
        fill: #106eff;
      }
    </style>
  </defs>
  <g>
    <path class="cls-3" d="M101.38,31.48h6.32v23.05h-6.32v-23.05Z"/>
    <path class="cls-3" d="M63.33,30.79c8.51,0,12.01,6.17,12.01,12.15s-3.5,12.15-12.01,12.15-12.01-6.17-12.01-12.15,3.5-12.15,12.01-12.15ZM63.33,36.59c-3.96,0-5.61,3.13-5.61,6.35s1.66,6.35,5.61,6.35,5.61-3.13,5.61-6.35-1.66-6.35-5.61-6.35Z"/>
    <path class="cls-3" d="M138.1,55.09l-5.3-5.33c1.19-2.03,1.74-4.42,1.74-6.79,0-6-3.5-12.18-12.04-12.18s-12.04,6.18-12.04,12.18,3.51,12.18,12.04,12.18c2.77,0,5.01-.66,6.77-1.75l1.8,1.69h7.02ZM122.48,49.4c-3.96,0-5.61-3.15-5.61-6.4s1.66-6.4,5.61-6.4,5.61,3.15,5.61,6.4c0,.62-.06,1.24-.19,1.83l-3.46-3.47-3.86,3.86,4.04,3.79c-.62.24-1.34.38-2.15.38Z"/>
    <path class="cls-3" d="M88.15,54.53h-10.72v-23.05h6.26v17.9h.09l9.23-17.9h7.03l-11.89,23.05Z"/>
    <g>
      <path class="cls-2" d="M17.76,66.57h1.48c-.43,2.17-2.12,3.61-4.39,3.61-2.61,0-4.71-2-4.71-4.71s2.09-4.69,4.71-4.69c2.27,0,3.96,1.41,4.39,3.59h-1.48c-.36-1.4-1.4-2.25-2.91-2.25-1.85,0-3.25,1.4-3.25,3.36s1.4,3.36,3.25,3.36c1.51,0,2.55-.85,2.91-2.27Z"/>
      <path class="cls-2" d="M28.58,67.84h-4.43l-.93,2.17h-1.53l4.01-9.07h1.35l4,9.07h-1.53l-.93-2.17ZM28.03,66.56l-1.67-3.91-1.68,3.91h3.35Z"/>
      <path class="cls-2" d="M40.68,64.04c0,1.95-1.49,3.24-3.76,3.24h-1.71v2.73h-1.44v-9.07h3.35c2.15,0,3.56,1.24,3.56,3.09ZM39.26,64.04c0-1.05-.88-1.77-2.19-1.77h-1.87v3.69h1.87c1.31,0,2.19-.77,2.19-1.92Z"/>
      <path class="cls-2" d="M44.93,60.94v9.07h-1.44v-9.07h1.44Z"/>
      <path class="cls-2" d="M55.58,62.26h-3.21v7.75h-1.43v-7.75h-3.21v-1.32h7.86v1.32Z"/>
      <path class="cls-2" d="M63.92,67.84h-4.43l-.93,2.17h-1.53l4.01-9.07h1.35l4,9.07h-1.53l-.93-2.17ZM63.37,66.56l-1.67-3.91-1.68,3.91h3.35Z"/>
      <path class="cls-2" d="M75.39,68.68v1.33h-6.28v-9.07h1.44v7.74h4.84Z"/>
    </g>
    <polygon class="cls-3" points="38.02 31.51 31.9 43.4 31.9 31.51 21.9 31.51 10.04 54.52 16.74 54.52 25.97 36.61 26.06 36.61 26.06 54.52 31.9 54.52 31.9 54.51 32.86 54.52 42.1 36.61 42.19 36.61 42.19 54.52 48.39 54.52 48.39 31.51 38.02 31.51"/>
  </g>
  <line class="cls-1" x1="150.78" y1="5.89" x2="150.78" y2="95.09"/>
</svg>